<?xml version="1.0" standalone="no"?>
<!DOCTYPE svg PUBLIC "-//W3C//DTD SVG 1.1//EN" "http://www.w3.org/Graphics/SVG/1.1/DTD/svg11.dtd" >
<!--
2013-9-30: Created.
-->
<svg>
<metadata>
Created by iconfont
</metadata>
<defs>

<font id="iconfont" horiz-adv-x="1024" >
  <font-face
    font-family="iconfont"
    font-weight="500"
    font-stretch="normal"
    units-per-em="1024"
    ascent="896"
    descent="-128"
  />
    <missing-glyph />
    
    <glyph glyph-name="caidan" unicode="&#59287;" d="M65.290005 763.702881H199.303208v-134.013203H65.290005zM65.290005 451.00609H199.303208v-134.013203H65.290005zM65.290005 138.310322H199.303208v-134.013203H65.290005zM288.645003 763.702881H958.708971v-134.013203H288.645003zM288.645003 451.00609H958.708971v-134.013203H288.645003zM288.645003 138.310322H958.708971v-134.013203H288.645003z"  horiz-adv-x="1024" />

    
    <glyph glyph-name="caidan1" unicode="&#58880;" d="M1004.807056 681.490628L808.361632 877.936053c-27.095921 27.095921-71.126792 27.095921-98.222712 0L515.951488 681.490628c-27.095921-27.095921-27.095921-71.126792 0-98.222712L711.267916 387.951488c27.095921-27.095921 71.126792-27.095921 98.222712 0L1004.807056 584.396913C1030.77398 611.492834 1030.77398 655.5237050000001 1004.807056 681.490628L1004.807056 681.490628zM759.814774 437.627343L564.498346 632.943771 759.814774 828.260198l195.316428-195.316428L759.814774 437.627343 759.814774 437.627343zM352.246968 832.7761849999999L64.352811 832.7761849999999C25.966924 832.7761849999999 0 810.196251 0 771.810364l0-290.15215c0-38.385888 25.966924-64.352811 64.352811-64.352811l287.894157 0c38.385888 0 64.352811 25.966924 64.352811 64.352811L416.599779 769.55237C416.599779 807.938258 390.632856 832.7761849999999 352.246968 832.7761849999999L352.246968 832.7761849999999zM352.246968 288.599779L64.352811 288.599779c-38.385888 0-64.352811-32.740904-64.352811-71.126792l0-276.60419c0-38.385888 30.482911-68.868798 68.868798-68.868798l276.60419 0c38.385888 0 71.126792 25.966924 71.126792 64.352811L416.599779 224.24696800000004c0 38.385888-32.740904 63.223815-71.126792 63.223815L352.246968 288.599779zM833.199559 288.599779L608.529217 288.599779c-38.385888 0-64.352811-25.966924-64.352811-64.352811L544.176406-63.647189000000026c0-38.385888 38.385888-64.352811 76.771775-64.352811l276.60419 0c38.385888 0 63.223815 25.966924 63.223815 64.352811L960.776185 224.24696800000004c0 38.385888-25.966924 64.352811-64.352811 64.352811L833.199559 288.599779z"  horiz-adv-x="1025" />

    
    <glyph glyph-name="home" unicode="&#60502;" d="M949.896 333.28c-11.904-10.712-30.528-9.04-41.848 2.28l-8.408 8.408v-314.768a64 64 0 0 0-64-64H185.976a64 64 0 0 0-64 64V342.112l-6.56-6.56c-11.32-11.32-29.944-12.984-41.84-2.272a29.552 29.552 0 0 0-1.152 42.896l418.096 418.104a29.32 29.32 0 0 0 21.216 8.528c7.68 0.08 15.36-2.672 21.224-8.528l418.088-418.104a29.552 29.552 0 0 0-1.152-42.896m-528.824-308.264h179.456v207.28a32 32 0 0 1-32 32H453.072a32 32 0 0 1-32-32v-207.28z m418.744 378.776l-328.08 328.088-329.952-329.952v-344.912a32 32 0 0 1 32-32h147.472V260.112a64 64 0 0 0 64 64h171.088a64 64 0 0 0 64-64v-235.096h147.472a32 32 0 0 1 32 32V403.792z"  horiz-adv-x="1024" />

    
    <glyph glyph-name="mail" unicode="&#60509;" d="M895.256 747.696H128.208a63.92 63.92 0 0 1-63.92-63.928v-599.2a63.912 63.912 0 0 1 63.912-63.912h767.056a63.92 63.92 0 0 1 63.92 63.92V683.768a63.92 63.92 0 0 1-63.92 63.928m-63.92-63.928l10.832-0.184-330.32-280.04-330.632 280.12 10.92 0.104h639.2z m63.92-567.2a32 32 0 0 0-32-32H160.208a32 32 0 0 0-32 32v503.28l-0.024 21.216 357.312-304.16c9.728-7.432 21.032-8.8 26.24-8.8 5.32 0 17.984 1.32 26.4 8.736l357.2 304.128-0.08-21.12v-503.28z"  horiz-adv-x="1024" />

    
    <glyph glyph-name="message" unicode="&#60510;" d="M865.616 214.024V467.712c0 129.592-111.048 238.424-260.48 268.936v18.296c0 42.456-41.776 77.008-93.144 77.008-51.336 0-93.112-34.552-93.112-77.008v-18.296c-149.448-30.512-260.496-139.344-260.496-268.936v-255.696l-33.568-87.072-0.88-7.552c0-26.64 25.64-48.32 57.144-48.32h661.264c31.832 0 57.736 21.888 57.736 48.792v5.2l-34.464 90.96z m-353.6 559.176c17.152 0 29.112-9.96 29.112-18.912v-15.048c-5.48 0.144-10.84 0.672-16.352 0.672h-25.536c-5.52 0-10.864-0.528-16.352-0.672v15.048h-0.008c0 8.944 11.96 18.912 29.136 18.912zM194.6 133.112l27.16 70.4V469.984c0 122.008 126.264 221.248 281.496 221.248h17.472c155.232 0 281.504-99.24 281.504-221.248V205.76l27.528-72.648H194.6z m317.416-140.16c-35.2 0-71.832 23.728-71.832 56h-65.92c0-64.536 61.792-112.536 137.76-112.536 75.944 0 137.72 48.008 137.72 112.536h-65.912c-0.008-32.272-36.624-56-71.816-56z"  horiz-adv-x="1024" />

    
    <glyph glyph-name="user" unicode="&#60548;" d="M511.736 320c-212.08 0-384-171.92-384-384h-64c0 198.752 129.544 367.024 308.704 425.64C302.304 407.304 255.728 486.072 255.728 576c0 141.392 114.624 256 256.008 256s255.992-114.608 255.992-256c0-89.928-46.576-168.696-116.704-214.36 179.168-58.608 308.712-226.888 308.712-425.64h-64c0 212.08-171.936 384-384 384z m191.992 256c0 106.04-85.96 192-191.992 192-106.04 0-192.008-85.96-192.008-192s85.968-192 192.008-192c106.032 0 191.992 85.96 191.992 192z"  horiz-adv-x="1024" />

    
    <glyph glyph-name="map" unicode="&#60558;" d="M949.024 784.8a28.8 28.8 0 0 1-24.648 5.32l-272.648-66.768-272.672 66.768c-0.12 0.032-0.248 0.016-0.368 0.048-1.192 0.28-2.424 0.336-3.64 0.464-0.944 0.096-1.872 0.28-2.816 0.28-1.072 0-2.128-0.2-3.2-0.32-1.104-0.12-2.216-0.176-3.296-0.424-0.128-0.032-0.264-0.016-0.392-0.048l-279.44-68.448a28.816 28.816 0 0 1-21.96-27.992v-687.456a28.832 28.832 0 0 1 35.68-27.992l272.488 66.792 272.768-66.792c0.24-0.056 0.488-0.032 0.736-0.088 2.008-0.44 4.048-0.744 6.12-0.744 2.064 0 4.104 0.304 6.112 0.736 0.248 0.056 0.504 0.032 0.752 0.088l279.504 68.496a28.816 28.816 0 0 1 21.96 27.992V762.128a28.84 28.84 0 0 1-11.04 22.672zM121.584 671.064l221.8 54.336v-628.072l-221.8-54.368V671.064z m279.44 54.336l221.888-54.336v-628.112l-221.888 54.336V725.4z m501.392-628.072l-221.864-54.368V671.064l221.864 54.336v-628.072z"  horiz-adv-x="1024" />

    
    <glyph glyph-name="qiaoliang" unicode="&#60504;" d="M195.757964 812.974052l118.719892-77.909418v-701.350532l-118.719892-77.952396 39.573297-77.951373 158.29319 116.90557V774.018831L235.331261 890.883469l-39.573297-77.909417z m514.450818-77.910441l118.719892 77.909417-39.573297 77.909418L631.062188 774.018831v-779.302928l158.293189-116.90557 39.573297 77.951373-118.719892 77.951373V735.063611z"  horiz-adv-x="1024" />

    
    <glyph glyph-name="fuwuqu" unicode="&#60505;" d="M800.642444 413.91124c11.873422 15.588023 23.775496 31.110555 35.59059 46.746674 16.895809 22.333658 38.802748 36.527938 66.280566 42.22366 14.771425 3.092431 29.296233 7.401574 41.596373 16.643052 5.435803 4.122901 10.321066 9.593496 13.990643 15.396665 4.983501 7.902994 8.280594 16.845667 12.821003 25.063839 16.425088 29.638017 33.060977 59.152215 49.599652 88.738044 2.269693 4.048199 0.907673 10.201339-2.908237 13.0492-4.54041 3.408633-7.055696-0.405229-9.80225-3.099594-1.506307-1.542122-2.950192-3.133364-4.281513-4.806469-21.11797-25.254174-42.345434-50.424436-63.186088-75.95695-3.745301-4.589528-7.54586-5.53097-12.657274-4.420682-5.506411 1.192152-7.283894 4.569062-4.541433 9.437953 1.89721 3.385097 4.298909 6.614651 6.831592 9.520841 20.2543 22.930245 40.553625 45.759183 60.86216 68.593237 3.992941 4.520967 3.669576 7.841595-1.397837 12.812817-3.608178 3.563152-6.909363 3.347235-10.937096-1.180895-5.89015-6.597255-11.558244-13.334703-17.206894-20.086477-16.164145-19.192108-32.264844-38.439474-48.396243-57.645908-3.146667-3.723811-14.605649-5.885034-17.203824-2.811023-4.348028 5.177929 1.39579 8.312316 3.377934 12.132319 0.568958 1.017166 1.439792 1.86958 2.155083 2.744507 18.24555 21.049409 36.404118 42.100864 54.649667 63.110363 3.586688 4.106528 7.15291 8.123005 10.824533 12.259208-1.595334 2.119267-2.614547 3.789303-3.978615 5.218862-3.992941 4.290723-6.213515 4.14746-9.883091-0.411369-19.654642-24.175609-39.651069-48.075949-58.702983-72.720232-5.809309-7.515161-12.027941-8.187473-19.818371-6.78145-6.618744 1.198292-8.06263 4.956895-3.974522 10.458189a89.045035 89.045035 0 0 0 8.373715 9.795087c19.720134 19.87363 39.550785 39.715537 59.355853 59.480696 6.247284 6.216585 6.340405 6.151094 1.375323 13.366426a28.018124 28.018124 0 0 1-2.136663 2.782369c-4.609994 5.201465-7.554046 5.386684-12.855796 0.845251-2.125407-1.804089-4.157693-3.62762-6.247284-5.339611-36.800138-29.585829-73.569576-59.141982-110.236684-88.857771-1.88186-1.50119-3.848655-4.181229-3.991917-6.451945-1.490957-19.153222-3.015683-38.34533-3.587712-57.551764-0.369414-12.010545-3.340071-21.976524-11.55108-31.283494-13.022595-14.573927-24.608467-30.382984-36.988426-45.858444a82457.015743 82457.015743 0 0 1 47.337122-57.80759c0.63138 1.24741 0.961908 2.003634 1.450024 2.652409z m216.095664-292.657386C858.171696 314.60142 699.643146 507.936707 541.158598 701.340555c-2.417049 2.931772-4.822842 4.641717-8.732895 4.736884-17.008372 0.457418-34.000372 1.37123-51.008744 1.64957-11.592013 0.209778-17.693987-6.232958-17.693987-17.894555-0.014326-25.908066-0.061398-51.823296 0.245593-77.707826 0.051165-3.003404 1.443885-6.53074 3.390214-8.854669 43.256176-52.199872 86.670965-104.249319 130.080637-156.348907 11.317767-13.526061 22.579251-27.03882 33.843806-40.525996 5.611811 2.789533 10.6782 5.852288 16.148795 7.830339 6.149047 2.223644 12.607132 4.26821 19.151176 4.999874 8.746198 1.014096 12.023848-1.714038 15.515368-9.981328 0.858554-1.955538 2.191922-3.700275 3.471055-5.414313 79.622432-106.86182 159.347195-213.59061 238.770082-320.610019 6.934946-9.364275 15.488763-15.21861 25.921369-19.038612 18.124799-6.642281 36.032658-6.748704 53.269227 2.784416 18.140149 10.077519 25.108864 39.73191 13.207814 54.288441z m-309.969681 237.628072c-7.303336 8.670473-14.527878 17.309224-21.962198 26.14752-1.263783-1.533936-2.171456-2.550079-3.033079-3.628644-70.941726-88.809675-141.959176-177.578418-212.870202-266.459724-2.728134-3.427052-4.561899-7.586792-6.788614-11.425214v-10.599405c5.574972-22.598694 23.473621-29.430286 43.080168-34.105773 1.684362-0.406253 3.388167-0.818645 5.043876-1.224897h9.379625c10.437723 0.884137 16.004509 8.015557 21.784142 15.70468 28.384467 37.730323 57.142441 75.229378 85.742827 112.811322 34.456766 45.200458 68.827575 90.465384 103.399975 135.567605 2.857071 3.700275 2.790556 5.89322-0.295736 9.331529-8.082072 9.104355-15.721053 18.566868-23.480784 27.881001zM255.256056 707.095629l-252.164136 3.000334v-650.41035l67.982324-0.064468v204.02679h169.909761c102.202707 17.192567 203.051579 98.629321 203.894783 206.052936 1.087774 128.880299-87.426165 220.191958-189.622732 237.394758z m121.69055-237.393735c-0.959861-60.264549-90.322122-139.368164-169.930227-137.378857H71.074244V641.418814h135.942135c79.772858 0.797156 171.531702-67.246567 169.930227-171.71692z"  horiz-adv-x="1024" />

    
    <glyph glyph-name="suidao" unicode="&#60506;" d="M511.976976 384.027629c-85.73464 0-155.266249-69.532633-155.26625-155.309228v-233.007845H434.343851V228.718401c0 42.868343 34.809807 77.654614 77.633125 77.654614 42.911322 0 77.676104-34.786271 77.676103-77.654614v-233.007845h77.675081V228.718401c0.001023 85.776595-69.529563 155.309228-155.351184 155.309228z m0 504.809228C233.208924 888.836857 7.166725 662.837636 7.166725 384.026606v-504.809227h77.676104V384.027629c0 235.900731 191.275371 427.154613 427.133123 427.154613 235.942687 0 427.177126-191.253882 427.177126-427.154613v-504.809227h77.675081V384.027629c0.002047 278.81103-225.996151 504.809227-504.851183 504.809228z"  horiz-adv-x="1024" />

    
    <glyph glyph-name="shoufeizhan" unicode="&#60507;" d="M788.859074 168.314683V235.565343h227.816612v-67.25066H788.859074z m-97.671507 0H528.442996c-15.395642 6.323009-17.489326-0.533143-25.987885 13.30298-4.802376 1.394766-2.708692 16.58677-6.567579 20.321838l-65.073064 33.624818v-100.914364h-292.931633V336.478683c0 44.915979 19.911492 67.248613 65.093531 67.248614l159.315472-1.539053c34.486442 0 63.800072-21.287839 75.870992-51.339272 4.187369-1.889023 8.04728-4.352121 11.495821-7.719822l97.30107-95.002724c2.709715-2.544963 12.316513-9.523911 14.041808-12.561083h130.187061c16.46295 2.133593 31.531134-12.234649 32.555464-33.624819 0.985444-22.457478-10.016121-33.625842-32.556487-33.625841zM398.256958 538.267503c0-59.900252-33.296337-101.756545-93.524047-100.073207-60.802808 1.683339-106.292861 39.968293-106.189507 99.559507 0.102331 59.96165 41.835827 101.407598 102.084003 101.407598 60.22771 0 97.629551-40.932248 97.629551-100.893898zM528.442996 740.055299H72.789305v-706.277752h455.653691v67.290569h65.113996V-33.513022l-585.861218 0.082888V807.302889l585.861218 0.021489v-201.787796h-65.113996V740.055299z m0 0"  horiz-adv-x="1024" />

    
    <glyph glyph-name="xiaoxitixing" unicode="&#60508;" d="M528.517697 800.254356L267.168364 637.504668l-177.159886-0.721431c-72.438822 0-84.437088-13.997805-84.437087-84.437088v-337.746304c2.226714-60.977793 32.241308-84.498486 42.218543-84.436064l219.37843 0.061398 261.349333-162.647357c36.941354-15.541975 65.554018 1.113357 65.554018 36.343743V763.932102c0 35.31225-29.356608 51.494815-65.554018 36.322254z m220.203214-204.535373c-5.89629 6.142907-14.100136 9.770528-22.75833 10.060123s-17.068747-2.803859-23.418362-8.55484c-13.152555-11.976776-13.853519-32.013111-1.524726-44.814672 6.060019-6.349615 16.449647-20.366863 27.169803-41.538045 18.304901-36.137035 29.355585-78.561263 29.355585-127.004579 0-48.444339-11.050684-90.929965-29.355585-127.004579-10.720156-21.191648-21.109784-35.189454-27.169803-41.559534-5.938246-6.121418-9.111518-14.304797-8.82397-22.695909 0.289596-8.43102 3.999081-16.367783 10.348696-22.09932 13.235442-11.997242 33.889855-11.296277 46.216601 1.505283 10.266831 10.637268 24.408923 29.68509 38.137599 56.875359 22.551622 44.505633 35.992749 96.391351 35.992749 155.040099 0 58.648748-13.441127 110.514-35.992749 155.019632-13.812587 27.085892-27.9117 46.195112-38.177508 56.770982z m200.454428 39.248909c-26.427906 43.372833-53.103452 73.407893-71.820745 89.590457-6.432503 5.606695-14.965853 8.492418-23.625071 7.997138-8.658194-0.494257-16.737196-4.308119-22.509666-10.595312-5.77247-6.266727-8.741082-14.512529-8.245801-22.923082 0.493234-8.410554 4.452405-16.264429 10.924817-21.850657 3.092431-2.659573 9.234315-8.616238 17.439184-17.893533a392.933207 392.933207 0 0 0 41.559534-56.54483c37.969776-62.524009 60.771085-135.62184 60.771086-218.883149 0-83.262332-22.800285-156.360164-60.854997-218.966037-12.121062-19.974937-25.973558-38.919405-41.516555-56.544831-8.245801-9.276271-14.389732-15.233959-17.439185-17.893532-13.482059-11.647271-14.678304-31.683607-2.680039-44.774763 11.95631-13.048177 32.694633-14.180977 46.13576-2.597151 18.71627 16.181541 45.391816 46.176692 71.77879 89.589434 43.662429 71.842235 69.923536 155.865907 69.923536 251.187903 0.041956 95.237061-26.13831 179.261757-69.840648 251.101945z m0 0"  horiz-adv-x="1024" />

    
    <glyph glyph-name="gongchengfukuanjilu" unicode="&#60511;" d="M891.184-6.352c-7.224-19.96-27.856-30.432-46.816-23.136l-4.496 1.728-16.184 6.224-312.768 120.28-310.64-118.224-19.8-7.544-0.88-0.336c-18.968-7.216-40.048 3-46.416 23.032-2.376 7.464-2.168 37.576-2.168 42.576V736.176a64 64 0 0 0 64 64h633.936a64 64 0 0 0 64-64v-697.936c-0.008-5.312 0.408-38.576-1.768-44.592z m-67.504 113.864V698.912a32 32 0 0 1-32 32H232.28a32 32 0 0 1-32-32v-636.976l297.752 113.32c4.064 1.552 8.224 1.928 12.312 1.936 0.568 0.056 1.088 0.24 1.656 0.264 0.528-0.024 1.008-0.192 1.528-0.24 4.12-0.008 8.304-0.4 12.4-1.976l297.752-114.496v46.768z m-553.968 245.84c1.72 18.008 17.88 31.224 35.96 31.224h412.616c18.088 0 34.24-13.224 35.96-31.224a34.64 34.64 0 0 0-34.472-38.04h-415.6a34.64 34.64 0 0 0-34.464 38.04z m242.264 169.76H305.672c-18.088 0-34.24 13.224-35.96 31.224a34.64 34.64 0 0 0 34.472 38.04h206.304c18.088 0 34.24-13.224 35.96-31.224a34.64 34.64 0 0 0-34.472-38.04z"  horiz-adv-x="1024" />

    
    <glyph glyph-name="dangongliyanghuchengben" unicode="&#60512;" d="M898.176 146.408h-89.144V205.84h89.144a29.712 29.712 0 0 1 0 59.424h-49.2l70.544 70.544a28.24 28.24 0 1 1-39.944 39.944l-98.888-98.88-100.6 100.6a28.848 28.848 0 0 1-40.792-40.792l71.408-71.408h-50.248a29.712 29.712 0 0 1 0-59.424H749.6v-59.432H660.456a29.712 29.712 0 0 1 0-59.424H749.6v-29.712a29.712 29.712 0 0 1 59.424 0v29.712h89.144a29.712 29.712 0 0 1 0.008 59.416zM363.312 324.704h181.544a237.344 237.344 0 0 0 49.008 59.432H395.336L541.6 650.024l122.624-222.928c17.896 6.912 36.912 11.152 56.592 13.56L569.832 715.128c-5.096 9.672-12.088 25.216-28.232 25.216-15.384 0-22.288-14.6-28.232-25.216l-345.536-628.144h-42.24a29.712 29.712 0 0 1 0-59.424h53.944c0.152-0.016 0.288 0.016 0.44 0h413.896a236.864 236.864 0 0 0-49.008 59.432H231.872L297.92 207.04c1.992-0.416 3.848-1.2 5.96-1.2h208.008c0 20.648 3.456 40.328 8.4 59.432H329.952l32.76 59.552c0.208 0 0.384-0.12 0.6-0.12z"  horiz-adv-x="1024" />

    
    <glyph glyph-name="tongleixiangmuduibi" unicode="&#60513;" d="M269.328 245.336a34.664 34.664 0 1 1 0-69.328 34.664 34.664 0 0 1 0 69.328z m277.336 0H408A34.664 34.664 0 0 1 408 176h138.664a34.664 34.664 0 0 1 0 69.336z m-277.336 208a34.664 34.664 0 1 1 0-69.328 34.664 34.664 0 0 1 0 69.328z m277.336 0H408A34.664 34.664 0 0 1 408 384h138.664a34.664 34.664 0 0 1 0 69.336zM864 800H368a64 64 0 0 1-64-64v-74.664H160a64 64 0 0 1-64-64V32a64 64 0 0 1 64-64h496a64 64 0 0 1 64 64v74.664h144a64 64 0 0 1 64 64V736a64 64 0 0 1-64 64z m-213.336-730.672a32 32 0 0 0-32-32H197.328a32 32 0 0 0-32 32V560a32 32 0 0 0 32 32h421.336a32 32 0 0 0 32-32v-490.672zM858.672 208a32 32 0 0 0-32-32H720V597.336a64 64 0 0 1-64 64H373.336v38.568a32 32 0 0 0 32.096 32l421.24-1.24a32 32 0 0 0 32-32V208z"  horiz-adv-x="1024" />

    
    <glyph glyph-name="gongchengbiangengziliao" unicode="&#60514;" d="M719.328 522.68V698.432a32 32 0 0 1-32 32h-490a32 32 0 0 1-32-32v-559.248a32 32 0 0 1 32-32h175.752v-69.248H160.08a64 64 0 0 0-64 64V735.68a64 64 0 0 0 64 64h564.496a64 64 0 0 0 64-64v-213h-69.248zM442.328 144.376a32.048 32.048 0 0 0 32.048 32.048h142.64c19.296 0 34.936-15.504 34.936-34.624 0-19.12-15.64-34.624-34.936-34.624h-69.128c31.88-41.84 82.016-69.248 139-69.248 84.512 0 154.976 59.48 171.168 138.496h69.872c-17.08-117.312-117.936-207.752-241.04-207.752-69.256 0-130.696 29.216-174.68 75.272v-40.648c0-19.12-15.64-34.624-34.936-34.624s-34.936 15.504-34.936 34.624V144.376z m415.496 274.424a34.64 34.64 0 0 0 38.032 34.464c18-1.72 31.216-17.872 31.216-35.952v-137.008l0.008-2.424a32.056 32.056 0 0 0-32.016-32.2H755.448c-18.08 0-34.232 13.216-35.952 31.216a34.64 34.64 0 0 0 34.464 38.032h68.512c-31.6 41.84-81.288 69.248-137.76 69.248-83.752 0-153.592-59.48-169.632-138.504h-69.248C462.76 362.984 562.72 453.424 684.72 453.424c68.64 0 129.536-29.216 173.128-75.272V418.8zM269.2 522.68h137.008c18.08 0 34.232-13.216 35.952-31.216a34.64 34.64 0 0 0-34.464-38.032H270.688c-18.08 0-34.232 13.216-35.952 31.216a34.64 34.64 0 0 0 34.464 38.032z m0 138.496h344.76c18.08 0 34.232-13.216 35.952-31.216a34.64 34.64 0 0 0-34.464-38.032H270.696c-18.08 0-34.232 13.216-35.952 31.216a34.632 34.632 0 0 0 34.456 38.032z"  horiz-adv-x="1024" />

    
    <glyph glyph-name="yanghuzijinduibi" unicode="&#60515;" d="M546.552 314.848a34.664 34.664 0 0 1 0 69.328h-57.4L571.448 466.48a32.944 32.944 0 0 1 0 46.6 32.944 32.944 0 0 1-46.6 0l-115.36-115.36-117.368 117.36a33.664 33.664 0 0 1-47.592 0 33.664 33.664 0 0 1 0-47.592L327.84 384.176h-58.624a34.664 34.664 0 0 1 0-69.328h104v-69.336h-104a34.664 34.664 0 0 1 0-69.328h104v-34.664a34.664 34.664 0 0 1 69.328 0v34.664h104a34.664 34.664 0 0 1 0 69.328h-104v69.336h104.008z m317.328 485.328h-496a64 64 0 0 1-64-64v-74.664h-144a64 64 0 0 1-64-64v-565.336a64 64 0 0 1 64-64h496a64 64 0 0 1 64 64v74.664h144a64 64 0 0 1 64 64V736.176a64 64 0 0 1-64 64z m-213.328-730.664a32 32 0 0 0-32-32H197.216a32 32 0 0 0-32 32V560.176a32 32 0 0 0 32 32h421.336a32 32 0 0 0 32-32v-490.664z m208 138.664a32 32 0 0 0-32-32H719.88V597.512a64 64 0 0 1-64 64H373.216c0 13.808 0.016 26.68 0.032 37.48a31.904 31.904 0 0 0 31.92 31.848h421.376a32 32 0 0 0 32-32v-490.664z"  horiz-adv-x="1024" />

    
    <glyph glyph-name="jiliangzhifu" unicode="&#60516;" d="M165.216 139.2V698.496a32.36 32.36 0 0 0 32.352 32.352h489.968a32.36 32.36 0 0 0 32.352-32.352v-244.632c0-0.192 0.16-0.352 0.352-0.352h68.632c0.192 0 0.352 0.16 0.352 0.352V735.824a64.344 64.344 0 0 1-64.352 64.352h-564.64a64.344 64.344 0 0 1-64.352-64.352v-633.96a64.344 64.344 0 0 1 64.352-64.352h351.296c0.192 0 0.352 0.16 0.352 0.352v68.632a0.352 0.352 0 0 1-0.352 0.352H197.568a32.352 32.352 0 0 0-32.352 32.352z m450.664 522.312H271.016c-18.28 0-34.744-13.344-36.328-31.552a34.672 34.672 0 0 1 34.528-37.776H614.08c18.28 0 34.744 13.344 36.328 31.552a34.664 34.664 0 0 1-34.528 37.776z m34.536-170.224c-1.592 18.208-18.048 31.552-36.328 31.552H271.016c-18.28 0-34.744-13.344-36.328-31.552a34.672 34.672 0 0 1 34.528-37.776h346.664a34.672 34.672 0 0 1 34.536 37.776zM234.688 346.4c1.584-18.208 18.048-31.552 36.328-31.552h171.184c0.192 0 0.352 0.16 0.352 0.352v68.632a0.352 0.352 0 0 1-0.352 0.352H269.216a34.68 34.68 0 0 1-34.528-37.784z m623.76 37.624L651.2 73.144c-0.192-0.288-0.64-0.152-0.64 0.192V347.456a36.72 36.72 0 0 1-36.72 36.72H512.232a0.352 0.352 0 0 1-0.352-0.352V315.2c0-0.192 0.16-0.352 0.352-0.352h68.632c0.192 0 0.352-0.16 0.352-0.352v-345.968c0-0.192 0.16-0.352 0.352-0.352h68.792a0.352 0.352 0 0 1 0.296 0.16l276.864 415.296a0.352 0.352 0 0 1-0.296 0.544h-68.488a0.352 0.352 0 0 1-0.288-0.152z"  horiz-adv-x="1024" />

    
    <glyph glyph-name="jianceshujudaoru" unicode="&#60517;" d="M409.272 384.168h58.672L314.512 230.376a33.088 33.088 0 0 1 0-46.6 32.616 32.616 0 0 1 46.328 0l207.52 209.072c16.632 16.464 16.112 33.48 3.048 46.616L359.84 651.568a33.312 33.312 0 0 1-47.312 0 33.792 33.792 0 0 1 0-47.592l150.104-150.472H409.28c-134.624 0-243.76 108.648-243.76 242.672v69.336c0 19.144-15.592 34.664-34.824 34.664-19.224 0-34.816-15.52-34.816-34.664v-69.336c-0.008-172.32 140.304-312.008 313.392-312.008z m454.632 416.016H546.568a34.672 34.672 0 1 1 0-69.328h280a32 32 0 0 0 32-32v-629.336a32 32 0 0 0-32-32H197.232a32 32 0 0 0-32 32v280a34.664 34.664 0 1 1-69.336 0v-317.336a64 64 0 0 1 64-64h703.992a64 64 0 0 1 64 64l0.024 704.008a64.008 64.008 0 0 1-64.008 63.992z"  horiz-adv-x="1024" />

    
    <glyph glyph-name="lukuangpingding" unicode="&#60518;" d="M832.016 454.112c-15.04 0-42.568-0.808-42.568-0.808v-346.64c0-13.464-0.152-26.472-0.256-37.648a31.984 31.984 0 0 0-32-31.68H234.6c-12.424 0-25.896 0.12-37.64 0.216a31.992 31.992 0 0 0-31.72 32V661.28c0 12.496 0.056 25.872 0.104 37.504a31.968 31.968 0 0 0 32 31.832h453.392c0 15.84-2.208 71.488 0 69.328H165.248c-47.04 0-69.352-21.12-69.352-69.328v-693.288c0-37.432 21.944-69.328 69.352-69.328h624.2c32.24 0 71.528 25.592 69.352 69.328V453.296c-1.896-0.272-11.752 0.816-26.784 0.816z m82.896 313.328c-17.232 18.016-45.24 18.016-62.48 0L646.64 551.872c-17.272-18.072-17.272-47.392 0-65.392 17.24-18.072 45.256-18.072 62.48 0l205.792 215.424c17.28 18.152 17.28 47.392 0 65.536z m0 0M477.672 522.624H337.688a34.448 34.448 0 0 0-34.352 34.352 34.448 34.448 0 0 0 34.352 34.352h139.984a34.448 34.448 0 0 0 34.352-34.352 34.456 34.456 0 0 0-34.352-34.352zM685.744 245.296H337.688a34.448 34.448 0 0 0-34.352 34.352 34.448 34.448 0 0 0 34.352 34.352h348.056a34.448 34.448 0 0 0 34.352-34.352 34.456 34.456 0 0 0-34.352-34.352z"  horiz-adv-x="1024" />

    
    <glyph glyph-name="daibanjiantou" unicode="&#60519;" d="M8.30106 281.387971h556.840254v-162.994258l451.952392 265.441535-451.951369 265.441534v-162.994258H8.30106v-204.894553z"  horiz-adv-x="1024" />

    
    <glyph glyph-name="jiantoushouqi" unicode="&#60520;" d="M1010.92931 661.394774c-14.553461 15.344476-38.168298 15.344476-52.721759 0l-445.516819-469.820341-445.51682 469.820341c-14.564717 15.344476-38.168298 15.344476-52.721759 0-14.564717-15.355733-14.564717-40.247656 0-55.603389l460.359876-485.473856c1.787716-5.451152 4.744048-10.571776 8.874112-14.922875 7.955182-8.387018 18.605753-12.181437 29.005614-11.406794 10.403954-0.774643 21.055548 3.0208 29.004591 11.406794 4.122901 4.350075 7.074116 9.468652 8.858762 14.917758l460.374202 485.47795c14.553461 15.356756 14.553461 40.248679 0 55.604412z"  horiz-adv-x="1024" />

    
    <glyph glyph-name="caigouguanli" unicode="&#60521;" d="M1018.086313 383.835248H6.285147V600.648248h1011.801166v-216.813zM78.56331 456.106248h867.24484v72.271H78.56331v-72.271z m794.97384-578.168002H150.83431L6.285147 383.835248H78.56331l144.542001-433.626002h578.160839l144.542 433.626002h72.278163L873.53715-122.061754zM512.189312 889.73225l72.271-72.271001-361.355001-289.084001-72.271001 72.271 361.355002 289.084002z m0 0l361.347838-289.084002-72.271-72.271-361.355002 289.084001 72.278164 72.271001z m0 0"  horiz-adv-x="1024" />

    
    <glyph glyph-name="jiantouzhankai" unicode="&#60522;" d="M1010.921123 160.989857L550.561247 646.463714c-1.787716 5.451152-4.744048 10.571776-8.874111 14.922874-7.955182 8.387018-18.605753 12.181437-29.005614 11.406794-10.403954 0.774643-21.055548-3.0208-29.004591-11.406794-4.122901-4.350075-7.074116-9.468652-8.858762-14.917758L14.443967 160.989857c-14.553461-15.355733-14.553461-40.247656 0-55.603389 14.553461-15.344476 38.168298-15.344476 52.721759 0l445.516819 469.820342 445.51682-469.820342c14.564717-15.344476 38.168298-15.344476 52.721758 0 14.564717 15.355733 14.564717 40.247656 0 55.603389z"  horiz-adv-x="1024" />

    
    <glyph glyph-name="gengduojiantou" unicode="&#60523;" d="M570.014298 383.336898c0.535189 11.072173-3.570315 22.315238-12.319583 30.772864L80.102363 875.752864c-16.489556 15.929808-43.213197 15.929808-59.711964 0-16.480346-15.939017-16.480346-41.782615 0-57.712423L470.121194 383.335874 20.390399-51.368692c-16.480346-15.929808-16.480346-41.773406 0-57.703213 16.498766-15.939017 43.222407-15.939017 59.711964 0l477.592352 461.644125c8.748245 8.452509 12.854772 19.692504 12.319583 30.764678z m434.97165 30.77184L527.384385 875.752864c-16.480346 15.929808-43.213197 15.929808-59.702753 0-16.480346-15.939017-16.480346-41.782615 0-57.712423l449.730794-434.704567-449.730794-434.704566c-16.480346-15.929808-16.480346-41.773406 0-57.703213 16.489556-15.939017 43.222407-15.939017 59.702753 0l477.601563 461.644125c8.744151 8.452509 12.847609 19.692504 12.31242 30.764678 0.535189 11.072173-3.568269 22.315238-12.31242 30.77184z"  horiz-adv-x="1024" />

    
    <glyph glyph-name="renliziyuan" unicode="&#60524;" d="M8.646937 18.634662V751.532701c0 10.375302 8.66945 19.689435 18.324344 19.689434H86.193081v-310.184574h387.731742v310.184574h77.546144v-775.46246h-77.546144v387.730719H86.193081v-384.661824s-15.152095 0.101307-25.699312 0.101308h-33.523511c-9.653871 0.001023-18.323321 9.329483-18.323321 19.704784z m620.370173 752.58645l176.875407-0.209778c116.125811 0 210.856335-115.497501 210.856335-239.144612 0-95.599312-70.916143-189.499935-155.100474-225.915309l145.328923-282.982026c6.809079-13.554714 7.397481-27.210735-6.692422-27.210735h-46.434566c-11.623735 0-16.455787 5.195326-21.286815 15.57165L784.102235 305.951413H629.01711v77.538981H784.102235c74.529437 0 155.092287 69.869301 155.092287 155.092287 0 78.972633-50.498114 156.945495-138.124847 156.945495l-172.051541-1.853208v77.546144z m0 0"  horiz-adv-x="1024" />

    
    <glyph glyph-name="shouqi" unicode="&#60525;" d="M45.284369 779.260206h935.850358c19.875676 0 35.993772 16.118096 35.993772 35.993772 0 19.882839-16.118096 35.993772-35.993772 35.993772H45.284369c-19.875676 0-35.993772-16.110933-35.993772-35.993772-0.001023-19.875676 16.117073-35.993772 35.993772-35.993772z m935.850358-359.941816H405.226185c-19.875676 0-35.993772-16.110933-35.993773-35.993772 0-19.875676 16.118096-35.993772 35.993773-35.993772h575.907518c19.875676 0 35.993772 16.118096 35.993773 35.993772 0.001023 19.881816-16.117073 35.993772-35.992749 35.993772z m0-431.931406H45.284369c-19.875676 0-35.993772-16.118096-35.993772-35.993773s16.118096-35.993772 35.993772-35.993772h935.850358c19.875676 0 35.993772 16.118096 35.993772 35.993772s-16.118096 35.993772-35.993772 35.993773zM297.243845 203.35985V563.301665L10.370185 398.879895l286.87366-195.520045z"  horiz-adv-x="1024" />

    
    <glyph glyph-name="shujuguanli" unicode="&#60526;" d="M473.716069 890.036171H161.884994v-857.514221l311.822888 0.008187 0.008187 857.506034zM395.759579 110.486626l-155.919119-0.008186V812.072519h155.919119V110.486626z m155.911956 545.682124l-0.008187-623.638613h311.822888l0.008187 623.638613H551.671535zM785.53077 110.486626H629.611651l0.01535 467.726657h155.911956l-0.008187-467.726657zM5.981225-45.433516h1013.43334v-77.955466H5.981225v77.955466z"  horiz-adv-x="1024" />

    
    <glyph glyph-name="KPIguanli" unicode="&#60527;" d="M936.179862 806.802492H766.999718V849.098807c0 23.356964-18.940374 42.297338-42.305525 42.297338-23.355941 0-42.289152-18.940374-42.289152-42.297338v-42.297338H344.021218V849.098807c0 23.356964-18.932188 42.297338-42.289152 42.297338-23.36515 0-42.297338-18.940374-42.297339-42.297338v-42.297338H90.23821c-64.748676 0-84.594677-17.84953-84.594676-84.593654v-761.339812c0-66.753333 19.846-84.593654 84.594676-84.593653h845.941652c64.74049 0 84.594677 17.841344 84.594677 84.593653v761.339812c0 66.745147-19.854187 84.594677-84.594677 84.594677z m0-676.745135V-39.130973H90.278119c1.662873 4.379751-2.663666 761.793136-0.032745 761.339811h169.18833v-42.297338c0-23.355941 18.932188-42.297338 42.297338-42.297338 23.356964 0 42.289152 18.940374 42.289152 42.297338V722.208838H682.406065v-42.297338c0-23.355941 18.932188-42.297338 42.289152-42.297338 23.36515 0 42.305525 18.940374 42.305524 42.297338V722.208838h84.577281c43.193755 0 84.602863-3.079128 84.602863 0v-592.151481z m-422.962128-84.594677h84.594677v338.376661h-84.594677v-338.376661z m-253.783007 0h84.594677V468.434018h-84.594677v-422.971338z m422.971338 0h84.594676V299.245687H682.406065v-253.783007z"  horiz-adv-x="1024" />

    
    <glyph glyph-name="hetongguanli" unicode="&#60528;" d="M87.73111-6.732076h-4.669346V774.425084s786.031167 6.670933 781.148973 0v-156.237367c16.411785 0 78.686107 0.064468 78.115102 0V774.425084c0 42.720987-35.409464 78.106916-78.115102 78.106915l-780.414239 0.023536C41.059138 849.267653 4.915963 816.395988 4.915963 773.667837v-782.180465c0-42.744523 35.424814-73.045643 78.145801-76.333526h312.459385s0.671289 73.232908 0 78.115102h-307.790039z m899.878075 122.32807l-41.534975 31.096229-132.646066 189.110055 6.569626 3.28072c36.144198 23.013133 55.875588 62.445214 55.875588 105.181551 0 68.998467-55.875588 128.171148-128.194684 128.171148-69.006653 0-128.155798-55.867402-128.155799-128.171148 0-42.736337 19.685341-82.169441 55.867402-105.181551l6.56144-3.28072-154.462954-220.206284h-19.724227c-16.435321 0-29.574572-13.139252-29.574573-32.862455v-138.04503c0-16.443507 13.139252-29.574572 29.574573-29.574572h479.844649c9.842159 0 16.419971 3.28072 23.013133 9.850345 6.561439 6.600325 9.858532 13.162788 9.858532 23.013133V86.014258c-0.001023 16.443507-13.140275 29.581736-32.871665 29.581736zM747.678674 509.983319c36.167734 0 62.437028-29.574572 65.74947-65.717747 0-36.151361-29.581736-65.756633-65.74947-65.756633-36.144198 0-65.725934 29.605272-65.725934 65.756633 3.297093 36.143175 32.863479 65.717747 65.725934 65.717747z m-16.427135-216.925564h39.440268l93.51893-143.559627H629.866455l101.385084 143.559627zM942.325839-6.732076H551.751353v78.122265H942.325839v-78.122265zM629.866455 618.187717v78.115102H161.184029v-78.115102h468.682426zM161.184029 461.965699h312.452222V540.080801H161.184029v-78.115102z"  horiz-adv-x="1024" />

    
    <glyph glyph-name="jihuaguanli" unicode="&#60529;" d="M427.739944 383.839341h337.784167v84.437088H427.739944v-84.437088z m-168.900781 0h84.454484v84.437088H258.839163v-84.437088zM934.415682 806.060595H765.532297V848.284255c0 23.315008-18.907629 42.222637-42.231847 42.222637-23.316032 0-42.214451-18.907629-42.21445-42.222637v-42.222637H343.293647V848.284255c0 23.315008-18.899442 42.222637-42.214451 42.222637-23.324218 0-42.222637-18.907629-42.222637-42.222637v-42.222637H89.955778c-64.635089 0-84.446297-17.817808-84.446297-84.446297v-760.013607c0-66.627467 19.811208-84.437088 84.446297-84.437088H934.415682c64.626903 0 84.446297 17.809621 84.446298 84.437088V721.615321c0 66.627467-19.819394 84.445274-84.446298 84.445274z m0-675.559123v-168.900781H89.99671c1.693572 4.342912-0.032746 760.013607-0.032746 760.013607h168.891572v-42.222638c0-23.315008 18.899442-42.222637 42.222637-42.222637 23.316032 0 42.214451 18.907629 42.214451 42.222637V721.615321h337.793376v-42.222637c0-23.315008 18.899442-42.222637 42.21445-42.222637 23.324218 0 42.231847 18.907629 42.231847 42.222637V721.615321H934.415682v-591.113849z m-506.675738 0h337.784167v84.437088H427.739944v-84.437088z m-168.900781 0h84.454484v84.437088H258.839163v-84.437088z"  horiz-adv-x="1024" />

    
    <glyph glyph-name="yidu" unicode="&#60530;" d="M1016.083703 477.15975v-529.210987c0-37.863353-31.029714-68.859297-68.933998-68.859298H78.429257c-37.921681 0-68.943209 31.004131-68.943209 68.859298v545.657564c0 0.87288 0.23536 1.679245 0.26913 2.560312V562.716334h-0.26913L397.210627 844.768175c56.189743 55.686277 147.288554 55.686277 203.470111 0l416.251286-282.050817v-85.557608h-0.848321zM67.028603-36.443771l222.074841 233.760998c13.4575 13.449313 35.277458 13.449313 48.734958 0 13.4575-13.441127 13.4575-35.243689 0-48.684816L146.910954-64.181509h740.690516l-190.92847 212.81392c-13.483082 13.441127-13.483082 35.243689 0 48.684816 13.4575 13.449313 35.277458 13.449313 48.734957 0L959.455985-32.136675V456.179926L576.73742 135.770476c-19.452028-19.452028-31.810496-33.875528-59.464323-33.875529-27.696806 0-44.327578 14.423501-63.821561 33.875529L67.028603 456.163553v-492.607324z m863.254969 570.642608L539.646664 784.271336c-22.48306 22.281469-58.918901 22.281469-81.392752 0l-357.819479-250.073522-6.372127 7.79964 30.828122-36.880979h0.427742l376.893906-320.661184c12.928451-12.912078 12.870122-12.903891 25.765827 0l376.968607 320.661184 33.909298 38.786375-8.580423-9.705036h0.008187z m0 0"  horiz-adv-x="1024" />

    
    <glyph glyph-name="yanghuguanli" unicode="&#60531;" d="M989.611795-122.71053H34.767851c-17.35118 6.15007-29.837562 25.258267-29.837562 44.679595s11.919471 38.542828 29.270651 44.692898l0.566911-0.021489h89.503477l49.731658 79.349209h675.807786l50.281174-79.349209h89.519849c17.35118-6.15007 29.837562-25.25008 29.837562-44.671409-0.001023-19.421328-12.486382-38.529525-29.837562-44.679595z m-646.664026 506.608199h337.916173l84.46881-168.945806H258.470773l84.476996 168.945806zM512.197498 890.380002L680.864966 552.851663h-337.916173L512.197498 890.380002z m0 0"  horiz-adv-x="1024" />

    
    <glyph glyph-name="xialajiantou" unicode="&#60532;" d="M16.249079 675.922652l437.053054-651.65162c26.396183-44.320415 92.393293-44.320415 118.789477 0l437.053054 651.65162c26.396183 44.309158-6.596232 99.708909-59.400878 99.70891H75.648934c-52.803623 0-85.796038-55.399751-59.399855-99.70891z"  horiz-adv-x="1024" />

    
    <glyph glyph-name="zichanguanli" unicode="&#60533;" d="M938.104701 808.738587H87.282902c-55.110155 0-77.348646-18.014282-77.348645-77.347622v-696.125531c0-59.341526 22.237467-77.355809 77.348645-77.355809h850.821799c55.102992 0 77.355809 18.014282 77.355809 77.355809V112.60487h-77.355809v-77.340459s-63.062268-1.632173-78.152964-1.632174h-750.083444c-15.08251 0-22.585391-0.414439-22.585391-0.414439V731.389942l772.669858 1.623987c15.090697 0 78.152964-1.623987 78.152964-1.623987v-77.348646h77.355809v77.348646c-0.001023 59.334363-22.25384 77.348646-77.356832 77.348645zM474.02306 189.953516h541.43745V576.693674H474.02306v-386.740158z m77.348646 309.392535h386.732995v-232.044913H551.371706v232.044913zM706.067974 344.649783h154.689105v77.348646H706.067974v-77.348646z"  horiz-adv-x="1024" />

    
    <glyph glyph-name="yingyunguanli" unicode="&#60534;" d="M261.295098 9.7759c-0.033769 2.616594 0-64.079434 0-83.610256 0-1.228991 31.839149 0 50.166563 0h451.497021c0 19.531845 1.116427 82.922594 0 83.610256H261.295098z m752.494353 167.220512V704.386938c0 29.155017-8.42795 56.319703-22.87601 78.953189-9.632381 14.999622-21.939685 28.02631-36.253692 38.352493a126.130675 126.130675 0 0 1-22.741957 13.018502c-16.044418 7.215332-33.577746 11.178597-51.896974 11.178597H94.082772c-35.066657 0-83.610256-41.138956-83.610256-83.618443v-585.27384c0-38.619576 36.161594-83.60207 83.610256-83.60207H930.179195c42.22366 5.225001 86.227874 37.138852 83.610256 83.601046z m-83.610256 0H94.082772V762.270253H930.179195v-585.273841zM328.584644 350.655568c10.434653 0 20.208251 5.091972 26.488281 13.870915L512.135076 511.438461l155.841348-150.883429c6.154163-6.362918 14.582113-9.899464 23.143093-9.899464h155.448398s-0.295735 64.312748-0.295736 70.743204H704.498222L512.135076 595.057927l-0.282432-0.282433-166.94729-166.94729-167.220512-6.429432c-0.176009-2.608407 0-70.743204 0-70.743204h150.899802z"  horiz-adv-x="1024" />

    
    <glyph glyph-name="zhifuguanli" unicode="&#60535;" d="M766.094092 382.816035h-168.589696v-84.294848h168.589696v84.294848z m-252.876358 0H176.030156v-84.294848h337.187578v84.294848zM934.683788 804.282089h-842.948481c-64.519456 0-84.294848-17.786085-84.294848-84.286662v-674.366971c0-66.508763 19.775392-84.286662 84.294848-84.286662h842.948481c64.511269 0 84.294848 17.777899 84.294848 84.286662V719.995427c0 66.500577-19.784602 84.286662-84.294848 84.286662z m0-674.350599v-84.303034H176.030156c-40.585347 0-81.937151 0.405229-84.294849 0.068561V551.397544h842.948481v-421.466054z m0 505.769089h-842.948481v84.294848h842.948481v-84.294848zM513.217734 214.226339H176.030156v-84.294849h337.187578v84.294849z"  horiz-adv-x="1024" />

    
    <glyph glyph-name="zhankai" unicode="&#60536;" d="M981.134727-12.613016H45.284369c-19.875676 0-35.993772-16.118096-35.993772-35.993773 0-19.882839 16.118096-35.993772 35.993772-35.993772h935.850358c19.875676 0 35.993772 16.110933 35.993772 35.993772 0 19.875676-16.118096 35.993772-35.993772 35.993773zM45.284369 347.329822H621.191888c19.875676 0 35.993772 16.110933 35.993772 35.993773 0 19.875676-16.118096 35.993772-35.993772 35.993772H45.284369c-19.875676 0-35.993772-16.118096-35.993772-35.993772-0.001023-19.882839 16.117073-35.993772 35.993772-35.993773z m0 431.930384h935.850358c19.875676 0 35.993772 16.118096 35.993772 35.993772S1001.010403 851.24775 981.134727 851.24775H45.284369c-19.875676 0-35.993772-16.118096-35.993772-35.993772s16.117073-35.993772 35.993772-35.993772z m683.889859-575.914682l286.87366 164.42177-286.87366 195.521068v-359.942838z"  horiz-adv-x="1024" />

    


  </font>
</defs>
</svg>
